[img]http://www.hotimg.com/direct/8UxjbAW.jpg[/img]
[code]
Title: Warrior 2011 TS XviD - VISUALiSE
Format: Xvid
Language: English
Subtitles: No
Imdb: http://www.imdb.com/title/tt1291584/

Plot:
The youngest son (Hardy) of an alcoholic former boxer (Nolte) 
returns home, where he's trained by his father for competition 
in a mixed martial arts tournament.. 

Sources:
Video: TNZ 720Files - Many Thanks  
Audio: Warrior (2011) TS XVID - reCodeM8-KinG RG - Many Thanks  

Release Notes:
VISUALiSE Bringing you 
Warrior 2011 TS XviD - VISUALiSE
video was from the TNZ 720 from which we got from TNZ thanks guys 
we ran sum filters added some sharpen and played with the sats a bit
audio is from the Warrior (2011) TS XVID - reCodeM8-KinG RG thanx guys  
release lurking the internet which which is nice line to complete the 
release we muxed this onto our encode and done sum final touches to 
get this looking nice  


enjoy. 

Info:

Video
ID                               : 0
Format                           : MPEG-4 Visual
Format profile                   : Advanced Simple@L5
Format settings, BVOP            : 2
Format settings, QPel            : No
Format settings, GMC             : No warppoints
Format settings, Matrix          : Default (H.263)
Codec ID                         : XVID
Codec ID/Hint                    : XviD
Duration                         : 2h 7mn
Bit rate                         : 1 497 Kbps
Width                            : 720 pixels
Height                           : 288 pixels
Display aspect ratio             : 2.500
Frame rate                       : 25.000 fps
Color space                      : YUV
Chroma subsampling               : 4:2:0
Bit depth                        : 8 bits
Scan type                        : Progressive
Compression mode                 : Lossy
Bits/(Pixel*Frame)               : 0.289
Stream size                      : 1.33 GiB (92%)

Audio
ID                               : 1
Format                           : MPEG Audio
Format version                   : Version 1
Format profile                   : Layer 3
Mode                             : Joint stereo
Mode extension                   : MS Stereo
Codec ID                         : 55
Codec ID/Hint                    : MP3
Duration                         : 2h 7mn
Bit rate mode                    : Constant
Bit rate                         : 128 Kbps
Channel(s)                       : 2 channels
Sampling rate                    : 44.1 KHz
Compression mode                 : Lossy
Stream size                      : 117 MiB (8%)
Alignment                        : Aligned on interleaves
Interleave, duration             : 40 ms (1.00 video frame)
Writing library                  : LAME3.98r
Encoding settings                : -m j -V 4 -q 2 -lowpass 17 -b 128

[/code]
Screens:
[img]http://www.hotimg.com/direct/ydU8ttc.png[/img]
[img]http://www.hotimg.com/direct/FyVnxJu.png[/img]
[img]http://www.hotimg.com/direct/aQyjcZz.png[/img]
[img]http://www.hotimg.com/direct/dWvAT5S.png[/img]
[img]http://www.hotimg.com/direct/6rGuydM.png[/img]
[img]http://www.hotimg.com/direct/4cBA3rT.png[/img]